# xmcd
#
# Track frame offsets:
#	150
#	15272
#	29237
#	44389
#	62322
#	88863
#
# Disc length: 1645 seconds
#
# Revision: 1
# Processed by: cddbd v1.5.1PL2 Copyright (c) Steve Scherf et al.
# Submitted via: audiograbber 1.83.01
#
DISCID=43066b06
DTITLE=Hot Banditoz - I wan it That way
DYEAR=2006
DGENRE=Dance
TTITLE0=I wan it That way (Video Edit)
TTITLE1=I wan it That way (Radio Edit)
TTITLE2=I wan it That way (Karaoke Edit)
TTITLE3=I wan it That way (Bodyshaker Club mix)
TTITLE4=Es A mi Manera
TTITLE5=I wan it That way (Video)
EXTD=
EXTT0=
EXTT1=
EXTT2=
EXTT3=
EXTT4=
EXTT5=
PLAYORDER=
